<svg width="1566" height="943" viewBox="0 0 1566 943" fill="none" xmlns="http://www.w3.org/2000/svg">
<ellipse cx="180" cy="288" rx="133" ry="135" fill="#EF8397"/>
<ellipse cx="335" cy="268.5" rx="57" ry="54.5" fill="#EF8397"/>
<path d="M445.846 126.5C445.846 188.632 396.373 239 335.346 239C274.318 239 224.846 188.632 224.846 126.5C224.846 64.368 274.318 14 335.346 14C396.373 14 432 60 445.846 126.5Z" fill="#EF8397"/>
<ellipse cx="496" cy="154.5" rx="79" ry="71.5" fill="#EF8397"/>
<ellipse cx="1205.5" cy="440.5" rx="156.5" ry="146.5" fill="#EF8397"/>
<ellipse cx="1103.5" cy="266" rx="95.5" ry="99" fill="#EF8397"/>
<ellipse cx="180.5" cy="476.5" rx="130.5" ry="123.5" fill="#FF6581"/>
<ellipse cx="1268.5" cy="798.5" rx="130.5" ry="123.5" fill="#D52847"/>
<ellipse cx="1268.5" cy="798.5" rx="130.5" ry="123.5" fill="#D52847"/>
<ellipse cx="1268.5" cy="798.5" rx="130.5" ry="123.5" fill="#D52847"/>
<ellipse cx="1373.5" cy="268.5" rx="95.5" ry="88.5" fill="#D52847"/>
<ellipse cx="1373.5" cy="268.5" rx="95.5" ry="88.5" fill="#D52847"/>
<ellipse cx="1373.5" cy="268.5" rx="95.5" ry="88.5" fill="#D52847"/>
<ellipse cx="1389" cy="500.5" rx="177" ry="172.5" fill="#D52847"/>
<ellipse cx="584.5" cy="649.5" rx="130.5" ry="123.5" fill="#FF6581"/>
<circle cx="1348.5" cy="204.5" r="63.5" fill="#FF6581"/>
<ellipse cx="1290.5" cy="361" rx="67.5" ry="62" fill="#FF6581"/>
<ellipse cx="1213.5" cy="565" rx="101.5" ry="107" fill="#FF6581"/>
<ellipse cx="1137.5" cy="401.5" rx="106.5" ry="93.5" fill="#FF6581"/>
<ellipse cx="1038.5" cy="736.5" rx="168.5" ry="155.5" fill="#FF6581"/>
<ellipse cx="264" cy="81" rx="84" ry="81" fill="#FF6581"/>
<ellipse cx="268.5" cy="779" rx="162.5" ry="149" fill="#FF6581"/>
<ellipse cx="321" cy="167.5" rx="78" ry="77.5" fill="#FF6581"/>
<ellipse cx="208.5" cy="288" rx="102.5" ry="96" fill="#FF6581"/>
<path d="M399 639C399 679.869 362.735 713 318 713C273.265 713 237 679.869 237 639C237 598.131 273.265 565 318 565C362.735 565 399 598.131 399 639Z" fill="#FF820F"/>
<path d="M399 639C399 679.869 362.735 713 318 713C273.265 713 237 679.869 237 639C237 598.131 273.265 565 318 565C362.735 565 399 598.131 399 639Z" fill="#FF3D00"/>
<path d="M1171 477.5C1171 517.541 1133.17 550 1086.5 550C1039.83 550 1002 517.541 1002 477.5C1002 437.459 1039.83 405 1086.5 405C1133.17 405 1171 437.459 1171 477.5Z" fill="#F5764E"/>
<path d="M1404 460C1404 468.837 1397.28 476 1389 476C1380.72 476 1374 468.837 1374 460C1374 451.163 1380.72 444 1389 444C1397.28 444 1404 451.163 1404 460Z" fill="#EBFE15"/>
<path d="M1404 460C1404 468.837 1397.28 476 1389 476C1380.72 476 1374 468.837 1374 460C1374 451.163 1380.72 444 1389 444C1397.28 444 1404 451.163 1404 460Z" fill="#EBFE15"/>
<path d="M1404 460C1404 468.837 1397.28 476 1389 476C1380.72 476 1374 468.837 1374 460C1374 451.163 1380.72 444 1389 444C1397.28 444 1404 451.163 1404 460Z" fill="#EBFE15"/>
<path d="M1353 511.5C1353 529.449 1338.67 544 1321 544C1303.33 544 1289 529.449 1289 511.5C1289 493.551 1303.33 479 1321 479C1338.67 479 1353 493.551 1353 511.5Z" fill="#EBFE15"/>
<path d="M1353 511.5C1353 529.449 1338.67 544 1321 544C1303.33 544 1289 529.449 1289 511.5C1289 493.551 1303.33 479 1321 479C1338.67 479 1353 493.551 1353 511.5Z" fill="#EBFE15"/>
<path d="M1353 511.5C1353 529.449 1338.67 544 1321 544C1303.33 544 1289 529.449 1289 511.5C1289 493.551 1303.33 479 1321 479C1338.67 479 1353 493.551 1353 511.5Z" fill="#EBFE15"/>
<path d="M724 586.5C724 596.717 715.493 605 705 605C694.507 605 686 596.717 686 586.5C686 576.283 694.507 568 705 568C715.493 568 724 576.283 724 586.5Z" fill="#EBFE15"/>
<path d="M724 586.5C724 596.717 715.493 605 705 605C694.507 605 686 596.717 686 586.5C686 576.283 694.507 568 705 568C715.493 568 724 576.283 724 586.5Z" fill="#EBFE15"/>
<path d="M724 586.5C724 596.717 715.493 605 705 605C694.507 605 686 596.717 686 586.5C686 576.283 694.507 568 705 568C715.493 568 724 576.283 724 586.5Z" fill="#EBFE15"/>
<path d="M559 90C559 97.732 553.18 104 546 104C538.82 104 533 97.732 533 90C533 82.268 538.82 76 546 76C553.18 76 559 82.268 559 90Z" fill="#EBFE15"/>
<path d="M559 90C559 97.732 553.18 104 546 104C538.82 104 533 97.732 533 90C533 82.268 538.82 76 546 76C553.18 76 559 82.268 559 90Z" fill="#EBFE15"/>
<path d="M559 90C559 97.732 553.18 104 546 104C538.82 104 533 97.732 533 90C533 82.268 538.82 76 546 76C553.18 76 559 82.268 559 90Z" fill="#EBFE15"/>
<path d="M746 51C746 57.0751 741.075 62 735 62C728.925 62 724 57.0751 724 51C724 44.9249 728.925 40 735 40C741.075 40 746 44.9249 746 51Z" fill="#EBFE15"/>
<path d="M746 51C746 57.0751 741.075 62 735 62C728.925 62 724 57.0751 724 51C724 44.9249 728.925 40 735 40C741.075 40 746 44.9249 746 51Z" fill="#EBFE15"/>
<path d="M746 51C746 57.0751 741.075 62 735 62C728.925 62 724 57.0751 724 51C724 44.9249 728.925 40 735 40C741.075 40 746 44.9249 746 51Z" fill="#EBFE15"/>
<path d="M1191 270C1191 274.971 1186.97 279 1182 279C1177.03 279 1173 274.971 1173 270C1173 265.029 1177.03 261 1182 261C1186.97 261 1191 265.029 1191 270Z" fill="#EBFE15"/>
<path d="M1191 270C1191 274.971 1186.97 279 1182 279C1177.03 279 1173 274.971 1173 270C1173 265.029 1177.03 261 1182 261C1186.97 261 1191 265.029 1191 270Z" fill="#EBFE15"/>
<path d="M1191 270C1191 274.971 1186.97 279 1182 279C1177.03 279 1173 274.971 1173 270C1173 265.029 1177.03 261 1182 261C1186.97 261 1191 265.029 1191 270Z" fill="#EBFE15"/>
<path d="M243 43.5C243 49.299 238.747 54 233.5 54C228.253 54 224 49.299 224 43.5C224 37.701 228.253 33 233.5 33C238.747 33 243 37.701 243 43.5Z" fill="#EBFE15"/>
<path d="M243 43.5C243 49.299 238.747 54 233.5 54C228.253 54 224 49.299 224 43.5C224 37.701 228.253 33 233.5 33C238.747 33 243 37.701 243 43.5Z" fill="#EBFE15"/>
<path d="M243 43.5C243 49.299 238.747 54 233.5 54C228.253 54 224 49.299 224 43.5C224 37.701 228.253 33 233.5 33C238.747 33 243 37.701 243 43.5Z" fill="#EBFE15"/>
<path d="M187 90C187 97.732 181.18 104 174 104C166.82 104 161 97.732 161 90C161 82.268 166.82 76 174 76C181.18 76 187 82.268 187 90Z" fill="#EBFE15"/>
<path d="M187 90C187 97.732 181.18 104 174 104C166.82 104 161 97.732 161 90C161 82.268 166.82 76 174 76C181.18 76 187 82.268 187 90Z" fill="#EBFE15"/>
<path d="M187 90C187 97.732 181.18 104 174 104C166.82 104 161 97.732 161 90C161 82.268 166.82 76 174 76C181.18 76 187 82.268 187 90Z" fill="#EBFE15"/>
<path d="M243 148.5C243 164.792 229.792 178 213.5 178C197.208 178 184 164.792 184 148.5C184 132.208 197.208 119 213.5 119C229.792 119 243 132.208 243 148.5Z" fill="#EBFE15"/>
<path d="M243 148.5C243 164.792 229.792 178 213.5 178C197.208 178 184 164.792 184 148.5C184 132.208 197.208 119 213.5 119C229.792 119 243 132.208 243 148.5Z" fill="#EBFE15"/>
<path d="M243 148.5C243 164.792 229.792 178 213.5 178C197.208 178 184 164.792 184 148.5C184 132.208 197.208 119 213.5 119C229.792 119 243 132.208 243 148.5Z" fill="#EBFE15"/>
<path d="M1265 774C1265 807.689 1238.36 835 1205.5 835C1172.64 835 1146 807.689 1146 774C1146 740.311 1172.64 713 1205.5 713C1238.36 713 1265 740.311 1265 774Z" fill="#F5764E"/>
<path d="M352 728.5C352 768.541 314.168 801 267.5 801C220.832 801 183 768.541 183 728.5C183 688.459 220.832 656 267.5 656C314.168 656 352 688.459 352 728.5Z" fill="#F5764E"/>
<path d="M372 393.5C372 433.541 334.168 466 287.5 466C240.832 466 203 433.541 203 393.5C203 353.459 240.832 321 287.5 321C334.168 321 372 353.459 372 393.5Z" fill="#F5764E"/>
<path d="M1233 688.5C1233 728.541 1195.17 761 1148.5 761C1101.83 761 1064 728.541 1064 688.5C1064 648.459 1101.83 616 1148.5 616C1195.17 616 1233 648.459 1233 688.5Z" fill="#F5764E"/>
<path d="M893 665.5C893 705.541 855.168 738 808.5 738C761.832 738 724 705.541 724 665.5C724 625.459 761.832 593 808.5 593C855.168 593 893 625.459 893 665.5Z" fill="#F5764E"/>
<path d="M1362 593.5C1362 633.541 1324.17 666 1277.5 666C1230.83 666 1193 633.541 1193 593.5C1193 553.459 1230.83 521 1277.5 521C1324.17 521 1362 553.459 1362 593.5Z" fill="#F5764E"/>
<path d="M436 119.5C436 159.541 398.168 192 351.5 192C304.832 192 267 159.541 267 119.5C267 79.4594 304.832 47 351.5 47C398.168 47 436 79.4594 436 119.5Z" fill="#F5764E"/>
<path d="M559 477.5C559 530.795 514.9 574 460.5 574C406.1 574 362 530.795 362 477.5C362 424.205 406.1 381 460.5 381C514.9 381 559 424.205 559 477.5Z" fill="#F5764E"/>
<path d="M1484 670C1484 699.823 1458.7 724 1427.5 724C1396.3 724 1371 699.823 1371 670C1371 640.177 1396.3 616 1427.5 616C1458.7 616 1484 640.177 1484 670Z" fill="#F5764E"/>
<path d="M169 626.5C169 666.541 131.168 699 84.5 699C37.8319 699 0 666.541 0 626.5C0 586.459 37.8319 554 84.5 554C131.168 554 169 586.459 169 626.5Z" fill="#F5764E"/>
<path d="M233 308C233 348.869 192.258 382 142 382C91.7421 382 51 348.869 51 308C51 267.131 91.7421 234 142 234C192.258 234 233 267.131 233 308Z" fill="#964D0B"/>
<path d="M233 308C233 348.869 192.258 382 142 382C91.7421 382 51 348.869 51 308C51 267.131 91.7421 234 142 234C192.258 234 233 267.131 233 308Z" fill="#FF3D00"/>
<path d="M1325 177.5C1325 214.779 1292.99 245 1253.5 245C1214.01 245 1182 214.779 1182 177.5C1182 140.221 1214.01 110 1253.5 110C1292.99 110 1325 140.221 1325 177.5Z" fill="#FF820F"/>
<path d="M1325 177.5C1325 214.779 1292.99 245 1253.5 245C1214.01 245 1182 214.779 1182 177.5C1182 140.221 1214.01 110 1253.5 110C1292.99 110 1325 140.221 1325 177.5Z" fill="#FF3D00"/>
<path d="M1186 522.5C1186 565.302 1151.3 600 1108.5 600C1065.7 600 1031 565.302 1031 522.5C1031 479.698 1065.7 445 1108.5 445C1151.3 445 1186 479.698 1186 522.5Z" fill="#FF820F"/>
<path d="M1186 522.5C1186 565.302 1151.3 600 1108.5 600C1065.7 600 1031 565.302 1031 522.5C1031 479.698 1065.7 445 1108.5 445C1151.3 445 1186 479.698 1186 522.5Z" fill="#FF3D00"/>
<path d="M538 625C538 665.869 497.258 699 447 699C396.742 699 356 665.869 356 625C356 584.131 396.742 551 447 551C497.258 551 538 584.131 538 625Z" fill="#FF820F"/>
<path d="M538 625C538 665.869 497.258 699 447 699C396.742 699 356 665.869 356 625C356 584.131 396.742 551 447 551C497.258 551 538 584.131 538 625Z" fill="#FF3D00"/>
<path d="M536 725C536 765.317 503.765 798 464 798C424.235 798 392 765.317 392 725C392 684.683 424.235 652 464 652C503.765 652 536 684.683 536 725Z" fill="#FF820F"/>
<path d="M536 725C536 765.317 503.765 798 464 798C424.235 798 392 765.317 392 725C392 684.683 424.235 652 464 652C503.765 652 536 684.683 536 725Z" fill="#FF3D00"/>
<path d="M440 561.5C440 589.39 412.689 612 379 612C345.311 612 318 589.39 318 561.5C318 533.61 345.311 511 379 511C412.689 511 440 533.61 440 561.5Z" fill="#FF820F"/>
<path d="M440 561.5C440 589.39 412.689 612 379 612C345.311 612 318 589.39 318 561.5C318 533.61 345.311 511 379 511C412.689 511 440 533.61 440 561.5Z" fill="#FF3D00"/>
<path d="M351 544C351 581.555 318.988 612 279.5 612C240.012 612 208 581.555 208 544C208 506.445 240.012 476 279.5 476C318.988 476 351 506.445 351 544Z" fill="#FF820F"/>
<path d="M351 544C351 581.555 318.988 612 279.5 612C240.012 612 208 581.555 208 544C208 506.445 240.012 476 279.5 476C318.988 476 351 506.445 351 544Z" fill="#FF3D00"/>
<path d="M208 616C208 656.869 167.258 690 117 690C66.7421 690 26 656.869 26 616C26 575.131 66.7421 542 117 542C167.258 542 208 575.131 208 616Z" fill="#FF820F"/>
<path d="M208 616C208 656.869 167.258 690 117 690C66.7421 690 26 656.869 26 616C26 575.131 66.7421 542 117 542C167.258 542 208 575.131 208 616Z" fill="#FF3D00"/>
<path d="M147 523.5C147 561.884 115.212 593 76 593C36.7878 593 5 561.884 5 523.5C5 485.116 36.7878 454 76 454C115.212 454 147 485.116 147 523.5Z" fill="#FF820F"/>
<path d="M147 523.5C147 561.884 115.212 593 76 593C36.7878 593 5 561.884 5 523.5C5 485.116 36.7878 454 76 454C115.212 454 147 485.116 147 523.5Z" fill="#FF3D00"/>
<path d="M1093 840.5C1093 897.109 1045.32 943 986.5 943C927.682 943 880 897.109 880 840.5C880 783.891 927.682 738 986.5 738C1045.32 738 1093 783.891 1093 840.5Z" fill="#FF820F"/>
<path d="M1093 840.5C1093 897.109 1045.32 943 986.5 943C927.682 943 880 897.109 880 840.5C880 783.891 927.682 738 986.5 738C1045.32 738 1093 783.891 1093 840.5Z" fill="#FF3D00"/>
<path d="M1159 114C1159 132.225 1145.12 147 1128 147C1110.88 147 1097 132.225 1097 114C1097 95.7746 1110.88 81 1128 81C1145.12 81 1159 95.7746 1159 114Z" fill="#FF820F"/>
<path d="M1159 114C1159 132.225 1145.12 147 1128 147C1110.88 147 1097 132.225 1097 114C1097 95.7746 1110.88 81 1128 81C1145.12 81 1159 95.7746 1159 114Z" fill="#FF3D00"/>
<path d="M703 454C703 485.48 674.346 511 639 511C603.654 511 575 485.48 575 454C575 422.52 603.654 397 639 397C674.346 397 703 422.52 703 454Z" fill="#FF820F"/>
<path d="M703 454C703 485.48 674.346 511 639 511C603.654 511 575 485.48 575 454C575 422.52 603.654 397 639 397C674.346 397 703 422.52 703 454Z" fill="#FF3D00"/>
<path d="M674 561C674 613.467 628.333 656 572 656C515.667 656 470 613.467 470 561C470 508.533 515.667 466 572 466C628.333 466 674 508.533 674 561Z" fill="#FF820F"/>
<path d="M674 561C674 613.467 628.333 656 572 656C515.667 656 470 613.467 470 561C470 508.533 515.667 466 572 466C628.333 466 674 508.533 674 561Z" fill="#FF3D00"/>
<path d="M766 724C766 764.869 725.258 798 675 798C624.742 798 584 764.869 584 724C584 683.131 624.742 650 675 650C725.258 650 766 683.131 766 724Z" fill="#FF820F"/>
<path d="M766 724C766 764.869 725.258 798 675 798C624.742 798 584 764.869 584 724C584 683.131 624.742 650 675 650C725.258 650 766 683.131 766 724Z" fill="#FF3D00"/>
<path d="M730 835C730 875.869 689.258 909 639 909C588.742 909 548 875.869 548 835C548 794.131 588.742 761 639 761C689.258 761 730 794.131 730 835Z" fill="#FF820F"/>
<path d="M730 835C730 875.869 689.258 909 639 909C588.742 909 548 875.869 548 835C548 794.131 588.742 761 639 761C689.258 761 730 794.131 730 835Z" fill="#FF3D00"/>
</svg>
